<?xml version="1.0" standalone="no"?>
<!DOCTYPE svg PUBLIC "-//W3C//DTD SVG 20010904//EN"
 "http://www.w3.org/TR/2001/REC-SVG-20010904/DTD/svg10.dtd">
<svg version="1.0" xmlns="http://www.w3.org/2000/svg"
 width="500.000000pt" height="500.000000pt" viewBox="0 0 500.000000 500.000000"
 preserveAspectRatio="xMidYMid meet">

<g transform="translate(0.000000,500.000000) scale(0.100000,-0.100000)"
fill="#000000" stroke="none">
<path d="M0 2500 l0 -2500 2500 0 2500 0 0 2500 0 2500 -2500 0 -2500 0 0
-2500z m810 257 c16 -8 34 -34 50 -73 27 -65 67 -134 78 -134 4 0 32 48 62
108 l55 107 45 3 c25 1 50 -1 56 -5 8 -5 13 -76 15 -213 l4 -205 -24 -3 c-12
-2 -34 -1 -47 2 -22 6 -23 10 -26 109 -2 77 -6 102 -16 102 -8 0 -32 -38 -55
-85 -36 -72 -46 -85 -69 -88 -24 -3 -30 3 -59 60 -40 81 -68 120 -80 113 -5
-4 -9 -53 -9 -111 l0 -105 -42 3 -43 3 -3 200 c-1 110 0 205 2 212 7 17 73 17
106 0z m632 -189 c2 -112 2 -209 0 -216 -3 -8 -18 -12 -41 -10 l-36 3 -3 213
-2 212 39 0 39 0 4 -202z m428 186 c110 -33 165 -130 140 -248 -13 -65 -45
-108 -104 -138 -35 -19 -58 -22 -156 -22 l-115 -1 -3 200 c-1 110 0 205 2 212
8 19 169 17 236 -3z m412 -156 l3 -173 88 -3 c95 -3 105 -9 93 -58 l-7 -25
-117 2 c-64 1 -123 4 -129 7 -10 3 -13 55 -13 213 l0 209 40 0 40 0 2 -172z
m643 148 c17 -26 175 -385 175 -398 0 -4 -18 -8 -39 -8 -41 0 -71 20 -71 46 0
8 -9 23 -20 34 -16 16 -33 20 -89 20 -77 0 -109 -17 -131 -70 -11 -27 -17 -30
-56 -30 -24 0 -44 3 -44 8 0 4 37 93 83 197 46 105 86 198 90 208 10 28 82 23
102 -7z m442 9 c11 -8 56 -62 99 -120 103 -138 114 -139 114 -4 0 119 8 139
55 139 18 0 35 -4 37 -10 2 -5 2 -102 0 -215 l-3 -205 -43 0 c-43 0 -43 1
-122 102 -86 113 -109 138 -124 138 -5 0 -11 -50 -12 -117 l-3 -118 -40 0 -40
0 -3 200 c-1 110 0 205 2 212 7 18 57 16 83 -2z m730 0 c98 -29 143 -92 143
-200 0 -111 -54 -180 -160 -204 -66 -15 -220 -14 -221 2 -1 14 -1 398 0 410 2
13 186 7 238 -8z m-3820 -687 c4 -7 29 -59 55 -115 40 -89 44 -103 29 -103
-11 0 -24 12 -31 30 -12 28 -15 30 -70 30 -55 0 -58 -2 -70 -30 -7 -18 -20
-30 -30 -30 -16 0 -12 15 29 103 53 117 59 127 71 127 5 0 12 -6 17 -12z m393
-3 c0 -10 -16 -15 -62 -17 -63 -3 -63 -3 -66 -35 l-3 -33 60 0 c48 0 61 -3 61
-15 0 -12 -13 -15 -60 -15 l-60 0 0 -35 0 -35 65 0 c51 0 65 -3 65 -15 0 -12
-16 -15 -80 -15 l-80 0 0 108 c0 60 3 112 7 115 3 4 39 7 80 7 57 0 73 -3 73
-15z m268 4 c20 -7 29 -15 25 -25 -4 -10 -10 -11 -23 -4 -28 15 -76 12 -90 -5
-20 -24 -4 -44 45 -57 50 -13 85 -40 85 -64 0 -8 -11 -26 -25 -39 -38 -39
-145 -31 -145 11 0 12 4 13 20 4 12 -6 40 -10 63 -8 37 3 42 6 42 27 0 20 -9
27 -54 41 -29 10 -57 24 -62 32 -14 22 -10 54 9 70 33 29 63 34 110 17z m340
-6 c2 -9 -9 -13 -37 -13 l-41 0 0 -100 c0 -81 -3 -100 -15 -100 -11 0 -15 20
-17 98 l-3 97 -37 3 c-26 2 -38 8 -38 18 0 12 16 14 92 12 62 -2 93 -7 96 -15z
m162 -33 l0 -50 65 0 65 0 0 50 c0 38 4 50 15 50 12 0 15 -19 15 -115 0 -96
-3 -115 -15 -115 -11 0 -15 12 -15 50 l0 50 -65 0 -65 0 0 -50 c0 -38 -4 -50
-15 -50 -12 0 -15 19 -15 115 0 96 3 115 15 115 11 0 15 -12 15 -50z m488 33
c3 -10 -14 -13 -62 -13 l-66 0 0 -35 0 -35 55 0 c42 0 55 -3 55 -15 0 -12 -13
-15 -55 -15 l-55 0 0 -35 0 -35 65 0 c51 0 65 -3 65 -15 0 -12 -16 -15 -80
-15 l-80 0 0 115 0 116 77 -3 c50 -2 78 -7 81 -15z m310 0 c2 -9 -9 -13 -37
-13 l-41 0 0 -100 c0 -81 -3 -100 -15 -100 -11 0 -15 20 -17 98 l-3 97 -37 3
c-26 2 -38 8 -38 18 0 12 16 14 92 12 62 -2 93 -7 96 -15z m160 -101 c2 -95 0
-112 -13 -112 -13 0 -15 18 -15 116 0 88 3 115 13 112 8 -3 13 -38 15 -116z
m319 103 c27 -11 34 -18 25 -27 -8 -8 -19 -8 -41 2 -59 24 -121 -15 -121 -77
0 -64 72 -104 132 -72 31 17 45 -5 17 -25 -49 -34 -144 -11 -168 41 -16 35
-13 95 5 122 17 24 66 50 97 51 10 0 34 -7 54 -15z m291 4 c20 -7 29 -15 25
-25 -4 -10 -10 -11 -23 -4 -28 15 -76 12 -90 -5 -20 -24 -4 -44 45 -57 50 -13
85 -40 85 -64 0 -8 -11 -26 -25 -39 -38 -39 -145 -31 -145 11 0 12 4 13 20 4
12 -6 40 -10 63 -8 37 3 42 6 42 27 0 20 -9 27 -54 41 -29 10 -57 24 -62 32
-14 22 -10 54 9 70 33 29 63 34 110 17z m429 -4 c27 -11 34 -18 25 -27 -8 -8
-19 -8 -41 2 -59 24 -121 -15 -121 -77 0 -64 72 -104 132 -72 31 17 45 -5 17
-25 -49 -34 -144 -11 -168 41 -16 35 -13 95 5 122 17 24 66 50 97 51 10 0 34
-7 54 -15z m211 -88 l3 -97 59 0 c47 0 60 -3 60 -15 0 -12 -16 -15 -80 -15
l-80 0 0 108 c0 60 3 112 7 116 19 19 28 -8 31 -97z m290 -15 c3 -107 2 -112
-18 -112 -19 0 -20 6 -20 108 0 60 3 112 7 116 20 20 28 -9 31 -112z m252 36
l65 -83 5 80 c4 62 8 80 20 80 12 0 16 -20 18 -112 2 -103 1 -113 -15 -112
-10 0 -47 36 -83 82 l-65 82 -3 -82 c-2 -65 -6 -83 -17 -83 -12 0 -15 20 -15
108 0 100 3 122 19 122 3 0 35 -37 71 -82z m300 -33 c0 -96 -3 -115 -15 -115
-12 0 -15 19 -15 115 0 96 3 115 15 115 12 0 15 -19 15 -115z m322 99 c20 -10
27 -19 20 -26 -7 -7 -17 -6 -30 1 -36 19 -72 13 -103 -18 -57 -58 -23 -141 59
-141 21 0 43 5 50 12 9 9 15 9 23 1 17 -17 -30 -43 -79 -43 -37 0 -50 6 -78
34 -94 94 19 241 138 180z"/>
<path d="M1724 2677 c-2 -7 -3 -67 -2 -133 l3 -119 60 0 c77 0 119 27 135 86
20 73 -7 140 -65 165 -44 18 -124 19 -131 1z"/>
<path d="M2847 2589 c-15 -35 -27 -67 -27 -71 0 -11 98 -10 104 1 3 5 -7 37
-22 71 l-28 63 -27 -64z"/>
<path d="M3950 2555 l0 -135 45 0 c97 0 155 49 155 132 0 94 -47 138 -150 138
l-50 0 0 -135z"/>
<path d="M232 1980 l-21 -50 49 0 49 0 -21 50 c-11 28 -24 50 -28 50 -4 0 -17
-22 -28 -50z"/>
</g>
</svg>
